<svg width="20" height="14" viewBox="0 0 20 14" fill="none" xmlns="http://www.w3.org/2000/svg">
<path d="M2.28778 8.63057C3.91893 10.2522 6.76361 12.4999 10 12.4999C13.2365 12.4999 16.0806 10.2522 17.7118 8.63057C18.142 8.20291 18.3578 7.98834 18.4948 7.56844C18.5925 7.26884 18.5925 6.73117 18.4948 6.43158C18.3578 6.01166 18.142 5.79706 17.7118 5.36935C16.0806 3.74774 13.2365 1.5 10 1.5C6.76361 1.5 3.91893 3.74774 2.28778 5.36935C1.85725 5.79736 1.64197 6.01151 1.50494 6.43158C1.40721 6.73117 1.40721 7.26884 1.50494 7.56844C1.64197 7.98851 1.85725 8.20257 2.28778 8.63057Z" stroke="#323F49" stroke-width="1.6" stroke-linecap="round" stroke-linejoin="round"/>
<path d="M8.16654 7C8.16654 8.01252 8.98736 8.83333 9.99988 8.83333C11.0124 8.83333 11.8332 8.01252 11.8332 7C11.8332 5.98748 11.0124 5.16667 9.99988 5.16667C8.98736 5.16667 8.16654 5.98748 8.16654 7Z" stroke="#323F49" stroke-width="1.6" stroke-linecap="round" stroke-linejoin="round"/>
</svg>
