<svg width="19" height="17" viewBox="0 0 19 17" fill="none" xmlns="http://www.w3.org/2000/svg">
<path d="M2.2348 1L16.9015 15.6667M13.6931 12.6929C12.4533 13.3608 11.0519 13.8332 9.56814 13.8332C6.33171 13.8332 3.48729 11.5855 1.85614 9.96391C1.42558 9.53587 1.21033 9.32187 1.0733 8.90177C0.97558 8.60217 0.97555 8.06435 1.0733 7.76476C1.21038 7.34468 1.42607 7.13017 1.85748 6.70136C2.67963 5.88419 3.80975 4.90829 5.14275 4.14119M16.4431 10.7473C16.7484 10.4788 17.028 10.2146 17.2789 9.96525L17.2816 9.96246C17.7112 9.53547 17.9266 9.32139 18.0634 8.90222C18.1611 8.60263 18.1609 8.0646 18.0632 7.765C17.9262 7.34504 17.7107 7.13043 17.2804 6.70268C15.6493 5.08108 12.8046 2.83333 9.56814 2.83333C9.25876 2.83333 8.95297 2.85387 8.65147 2.89244M10.7808 9.70833C10.4576 9.99358 10.0331 10.1667 9.56814 10.1667C8.55562 10.1667 7.7348 9.34586 7.7348 8.33333C7.7348 7.83879 7.93062 7.39016 8.24894 7.06038" stroke="#323F49" stroke-width="1.6" stroke-linecap="round" stroke-linejoin="round"/>
</svg>
